<svg width="425.75" height="81.47724636247023" viewBox="0 0 370 70.80817652170049" class="css-1j8o68f"><defs id="SvgjsDefs10747"></defs><g id="SvgjsG10748" featurekey="symbolFeature-0" transform="matrix(27.58450150118788,0,0,27.58450150118788,-20.610653185746123,-31.826435822475496)" fill="#111111"><title xmlns="http://www.w3.org/2000/svg">icon</title><path xmlns="http://www.w3.org/2000/svg" d="M.76105,1.331a.185.185,0,0,0,.07256.16612.61547.61547,0,0,0,.11976.07763c.06486.03511.12857.071.19657.1009a4.51654,4.51654,0,0,0,.447.165q.05491.01754.11012.03431a1.9216,1.9216,0,0,0-.22417-.0137l-.00412-.0022a.55261.55261,0,0,0-.36048-.05595l-.00688.00157c.01.001.00547.00168-.0138.00222l-.02047.00536a.42511.42511,0,0,0-.0487.0177.24071.24071,0,0,0-.08055.0596.19841.19841,0,0,0-.049.12857A.43429.43429,0,0,0,.797,2.134a.39625.39625,0,0,0-.01307.359.76229.76229,0,0,0,.05106.09372.90786.90786,0,0,0,.06528.0886,1.14538,1.14538,0,0,0,.16167.15781,2.10421,2.10421,0,0,0,.3769.23514q.1068.05459.21778.10191l-.01448.008a.27931.27931,0,0,0-.13491.26538.26458.26458,0,0,0,.16221.19545.82636.82636,0,0,0,.27659.07328.94235.94235,0,0,0,.24274.00117,1.24591,1.24591,0,0,0,.32014-.09356.739.739,0,0,0,.24393-.16281,1.09462,1.09462,0,0,0,.17664-.00234.5954.5954,0,0,0,.33207-.13288A.2128.2128,0,0,0,3.279,2.9862q-.018-.019-.03726-.03656a.62385.62385,0,0,0,.01745-.17446.88986.88986,0,0,0-.10509-.3632,1.50015,1.50015,0,0,0-.108-.18148c.20808.084.40932.182.61517.27a2.51309,2.51309,0,0,0,.40626.14621c.04488.01062.08811.02477.13264.03607.05223.01324.13819.01588.16406-.06147a.07709.07709,0,0,0-.01665-.09122,1.38784,1.38784,0,0,0-.413-.22354c-.14878-.05366-.30121-.0995-.45486-.14188-.17285-.04772-.347-.09227-.5212-.13678Q2.91365,2.01347,2.86833,2A1.84124,1.84124,0,0,0,2.644,1.78032a2.93465,2.93465,0,0,0-.79072-.4652,2.23475,2.23475,0,0,0-.71664-.15748.52832.52832,0,0,0-.27885.04191A.18386.18386,0,0,0,.76105,1.331Zm.38743.80653-.00166-.00178a.53345.53345,0,0,1-.05946-.077c.02063-.00777.04128-.01457.06028-.02026a.95523.95523,0,0,1,.19161-.03738q.04087-.0034.08133-.00423c.01338.00779.02643.016.039.02486a.52964.52964,0,0,1,.05057.04065l.01649.01581.02325.02753a.39451.39451,0,0,1,.06944.13344,1.08126,1.08126,0,0,1,.04856.221,2.07419,2.07419,0,0,1-.23668-.11475,1.63408,1.63408,0,0,1-.18373-.123c-.02489-.01925-.04966-.03911-.07312-.06014l-.01726-.01619Zm.6464.37152c.0004-.06128.00339-.12249-.00143-.18312a.59592.59592,0,0,0-.04973-.19963A.51956.51956,0,0,0,1.673,2.01155q.03228.004.06435.00891.08515.01291.17046.0306a.2569.2569,0,0,0,.04785.14244,1.14215,1.14215,0,0,0,.09211.12841,1.08575,1.08575,0,0,0,.14322.13952,1.11005,1.11005,0,0,0-.21832-.04051.08976.08976,0,0,0-.07309.037.094.094,0,0,0-.01672.07983l.00026.00126-.048-.01588Zm1.04133-.03794.01443.01427.015.01658a.42735.42735,0,0,1,.03782.05054l.01062.01855c-.0043-.00774.00542.01284.00711.01785l.00428.01817.00023.00419.00012.00192-.00094.005-.0004.001-.00114.00246-.00423.0054-.00042.00051L2.908,2.63658l-.00975.007-.02175.01118-.022.00917c.01464-.00564-.01.00253-.01057.00269a.398.398,0,0,1-.0407.00887,3.05586,3.05586,0,0,0-.30182-.203A1.47416,1.47416,0,0,1,2.169,2.211a1.00192,1.00192,0,0,1-.08666-.1181,2.36322,2.36322,0,0,1,.48061.1863A1.23133,1.23133,0,0,1,2.83621,2.47109Zm-.16038.37569.05267-.00252.01518.01333a.77932.77932,0,0,1,.13243.15376c.009.01366.01771.02753.02589.04175l.00982.01906.00049.00108a.60642.60642,0,0,1-.17063-.04175,1.19779,1.19779,0,0,1-.1957-.08474,1.44738,1.44738,0,0,1-.17081-.11662A1.846,1.846,0,0,0,2.67583,2.84678Zm.1383-.607-.00652-.00444a1.7322,1.7322,0,0,0-.21378-.12083q.07354.01849.14729.03656Q2.77869,2.19436,2.81413,2.23981Zm-1.32774.64191c-.04938-.02557-.11861-.06526-.17592-.10219a1.54834,1.54834,0,0,1-.173-.12923c-.02578-.02236-.05045-.046-.07426-.07059L1.05188,2.568l-.01474-.01623c-.01317-.01471-.02566-.03-.03784-.04559a.76528.76528,0,0,1-.05621-.0818l-.00922-.016L.9267,2.39388A.42434.42434,0,0,1,.91,2.352a.21569.21569,0,0,1-.00758-.13442l.00114-.00645L.911,2.194l.0062-.01214C.91453,2.187.9223,2.17367.92366,2.17163l.01282-.017.01273.02224a.5659.5659,0,0,0,.07426.0952,1.27888,1.27888,0,0,0,.32711.23642,2.89488,2.89488,0,0,0,.68551.254c.01752.01668.03546.03291.05338.049a2.30781,2.30781,0,0,0,.3348.26393,1.26594,1.26594,0,0,0,.233.11148l-.021.00117-.05195.00154c-.03766.00066-.075-.00044-.11213-.00245A1.7802,1.7802,0,0,1,2.25933,3.162l-.00639-.0011-.00608-.00122-.02507-.005-.05-.011c-.036-.00833-.07162-.01771-.107-.02772-.06781-.01913-.13431-.04147-.19984-.06575A3.37616,3.37616,0,0,1,1.48639,2.88172Zm.92142.66366a1.12182,1.12182,0,0,1-.17264.04748c-.02044.00407-.041.00727-.06137.00978l-.0044.00049-.00756.00063-.02928.00143A1.08931,1.08931,0,0,1,1.87571,3.582a.72068.72068,0,0,1-.13241-.04191.24.24,0,0,1-.04638-.02456.27647.27647,0,0,1-.04411-.03481l-.00589-.00648-.008-.01039-.01266-.02035c.00365.00636-.00482-.01324-.006-.01717l-.0026-.01015c.0018.00763-.00077-.00814-.00093-.01069-.0003-.00458-.00023-.00926-.00019-.01389l0-.00164.00033-.00276a.21826.21826,0,0,1,.00634-.03041l.00058-.00232.00157-.00409.00664-.016.00659-.01273c-.00437.00814.00594-.00811.00765-.01039l.0072-.00854c-.0043.00491.00468-.00433.00646-.00587l.01221-.00975.00234-.0018.00166-.00094A.233.233,0,0,1,1.70445,3.27l.00973-.00386.01705-.005c.01092-.00295.022-.0051.033-.007l.01707-.00255.0113-.00124a.62187.62187,0,0,1,.07071-.00117,2.50626,2.50626,0,0,0,.37646.09637q.05024.00867.10139.01448a1.80054,1.80054,0,0,0,.20761.06617q.03551.00835.07171.01478A.92986.92986,0,0,1,2.40781,3.54538Zm.79233-.44653a.249.249,0,0,1,.02056.03193l.00274.00662.00517.01579.00105.0043.00077.01495L3.2297,3.177l-.00222.00842-.0043.00957L3.22212,3.197l-.00243.00344-.01261.01567-.00014.00012-.00522.005a.328.328,0,0,1-.03962.031l-.01307.008-.02032.01132c-.01375.00723-.02783.01349-.042.01937a.50119.50119,0,0,1-.0871.02528.69994.69994,0,0,1-.14991.01366.6363.6363,0,0,0,.24573-.13234.46592.46592,0,0,0,.09248-.11386Zm-.11957-.32659c.00161.01385.00262.02793.00335.04206l.00051.02007c-.03672-.02206-.07459-.04245-.11288-.06184a.24905.24905,0,0,0,.074-.07349l.01375-.02519c.00631.02154.01186.04358.01642.06594l.00208.01158ZM.992,1.321l.02526-.00166.033-.0007c.02318-.00014.04624.00063.06919.00192.0342.00187.06809.00519.10179.009a2.29822,2.29822,0,0,1,.80215.26175c.05232.02741.12551.07017.18389.107.065.04107.12792.08516.18892.13173q.04077.03108.08062.06425c-.038-.0094-.07639-.01766-.11548-.02341-.2491-.06841-.49645-.14052-.74038-.22155a4.26662,4.26662,0,0,1-.44438-.16873c-.05426-.025-.10759-.05176-.16095-.07836l-.00765-.004L.99757,1.39275l-.03116-.0192A.28072.28072,0,0,1,.93778,1.352L.93039,1.34511.923,1.33557l.00014-.00009.0044-.00178.00622-.00185A.34865.34865,0,0,1,.992,1.321Z" fill="#111111"></path></g><g id="SvgjsG10749" featurekey="nameFeature-0" transform="matrix(0.9036211691790174,0,0,0.9036211691790174,118.14757556907065,-3.624585010709543)" fill="#111111"><path d="M16.113 40.37109 c-8.0078 0 -14.063 -5.4688 -14.063 -14.316 c0 -8.8086 6.0547 -14.297 14.063 -14.297 c5.8594 0 10.664 2.9688 12.754 7.9492 l-4.3555 1.6602 c-1.4453 -3.3398 -4.6094 -5.2539 -8.3984 -5.2539 c-5.2734 0 -9.3945 3.6719 -9.3945 9.9414 c0 6.3086 4.1211 9.9609 9.3945 9.9609 c3.7891 0 6.9531 -1.8945 8.3984 -5.2344 l4.3555 1.6602 c-2.0898 4.9805 -6.8945 7.9297 -12.754 7.9297 z M50.14425 40.37109 c-8.0078 0 -14.063 -5.4883 -14.063 -14.316 c0 -8.8086 6.0547 -14.297 14.063 -14.297 c7.9883 0 14.043 5.4883 14.043 14.297 c0 8.8281 -6.0547 14.316 -14.043 14.316 z M50.14425 36.0352 c5.2734 0 9.3945 -3.6523 9.3945 -9.9805 c0 -6.2695 -4.1211 -9.9414 -9.3945 -9.9414 s-9.3945 3.6719 -9.3945 9.9414 c0 6.3281 4.1211 9.9805 9.3945 9.9805 z M92.867625 12.148 l4.668 0 l0 27.852 l-5.2344 0 l-13.672 -21.25 l0 21.25 l-4.6289 0 l0 -27.852 l5.1758 0 l13.691 21.113 l0 -21.113 z M118.20734375 40.37109 c-5.8984 0 -10.313 -2.8125 -11.211 -7.7344 l4.8047 -1.1133 c0.50781 3.2031 3.1445 4.9609 6.582 4.9609 c2.7148 0 5.1758 -1.1523 5.1367 -4.082 c-0.039063 -3.0469 -3.418 -3.9258 -7.0703 -4.9609 c-4.2188 -1.2305 -8.5547 -2.6367 -8.5547 -7.7539 c0 -5.1953 4.2578 -7.9297 9.5508 -7.9297 c4.8828 0 9.5117 2.0508 10.586 7.0508 l-4.5117 1.1328 c-0.625 -2.9688 -2.9297 -4.2773 -5.8398 -4.2773 c-2.5977 0 -5.0586 1.1133 -5.0586 3.9453 c0 2.5781 2.9492 3.3789 6.3281 4.3164 c4.3555 1.2109 9.3945 2.6953 9.3945 8.2813 c0 5.7617 -4.8242 8.1641 -10.137 8.1641 z M153.46828125 12.148 l0 4.1602 l-6.875 0 l0 23.691 l-4.6484 0 l0 -23.691 l-6.8945 0 l0 -4.1602 l18.418 0 z M180.4300625 40 l-2.207 -6.1914 l-12.168 0 l-2.1875 6.1914 l-4.8242 0 l10.254 -27.852 l5.6836 0 l10.254 27.852 l-4.8047 0 z M167.4804625 29.805 l9.3359 0 l-4.668 -13.164 z M212.742625 12.148 l4.668 0 l0 27.852 l-5.2344 0 l-13.672 -21.25 l0 21.25 l-4.6289 0 l0 -27.852 l5.1758 0 l13.691 21.113 l0 -21.113 z M241.26534375 40.37109 c-8.0078 0 -14.063 -5.4688 -14.063 -14.316 c0 -8.8086 6.0547 -14.297 14.063 -14.297 c5.8594 0 10.664 2.9688 12.754 7.9492 l-4.3555 1.6602 c-1.4453 -3.3398 -4.6094 -5.2539 -8.3984 -5.2539 c-5.2734 0 -9.3945 3.6719 -9.3945 9.9414 c0 6.3086 4.1211 9.9609 9.3945 9.9609 c3.7891 0 6.9531 -1.8945 8.3984 -5.2344 l4.3555 1.6602 c-2.0898 4.9805 -6.8945 7.9297 -12.754 7.9297 z M278.71459375 16.309 l-10.82 0 l0 7.7148 l9.5703 0 l0 4.1211 l-9.5703 0 l0 7.6758 l10.82 0 l0 4.1797 l-15.547 0 l0 -27.852 l15.547 0 l0 4.1602 z"></path></g><g id="SvgjsG10750" featurekey="sloganFeature-0" transform="matrix(0.8662869743477353,0,0,0.8662869743477353,118.75592527085182,47.9071408498207)" fill="#111111"><path d="M17.354 20 l-2.3145 0 l-0.91797 -10.996 l-3.9941 10.996 l-1.4648 0 l-3.9746 -10.977 l-0.92773 10.977 l-2.3242 0 l1.1133 -13.926 l3.252 0 l3.584 9.8438 l3.6133 -9.8438 l3.252 0 z M32.0126546875 20.18555 c-4.0039 0 -7.0313 -2.7441 -7.0313 -7.1582 c0 -4.4043 3.0273 -7.1484 7.0313 -7.1484 c3.9941 0 7.0215 2.7441 7.0215 7.1484 c0 4.4141 -3.0273 7.1582 -7.0215 7.1582 z M32.0126546875 18.0176 c2.6367 0 4.6973 -1.8262 4.6973 -4.9902 c0 -3.1348 -2.0605 -4.9707 -4.6973 -4.9707 s-4.6973 1.8359 -4.6973 4.9707 c0 3.1641 2.0605 4.9902 4.6973 4.9902 z M47.228528125 20 l0 -13.926 l4.7656 0 c4.3555 0 6.543 2.832 6.543 6.9531 c0 4.1309 -2.1875 6.9727 -6.543 6.9727 l-4.7656 0 z M49.562528125 17.9102 l2.334 0 c2.8516 0 4.1895 -1.8457 4.1895 -4.8828 c0 -3.0176 -1.3379 -4.873 -4.1895 -4.873 l-2.334 0 l0 9.7559 z M74.5536859375 8.154 l-5.4102 0 l0 3.8574 l4.7852 0 l0 2.0605 l-4.7852 0 l0 3.8379 l5.4102 0 l0 2.0898 l-7.7734 0 l0 -13.926 l7.7734 0 l0 2.0801 z M90.355509375 20 l-3.6133 -6.2109 l-1.5039 0 l0 6.2109 l-2.334 0 l0 -13.926 l4.834 0 c3.0176 0 4.3457 1.8066 4.3457 4.043 c0 1.9434 -1.1523 3.252 -2.998 3.584 l4.0137 6.2988 l-2.7441 0 z M85.238309375 8.047 l0 4.0137 l2.1582 0 c1.709 0 2.4414 -0.80078 2.4414 -1.9922 c0 -1.1816 -0.73242 -2.0215 -2.4414 -2.0215 l-2.1582 0 z M110.2687734375 6.074 l2.334 0 l0 13.926 l-2.6172 0 l-6.8359 -10.625 l0 10.625 l-2.3145 0 l0 -13.926 l2.5879 0 l6.8457 10.557 l0 -10.557 z M134.4502234375 17.9102 l4.5996 0 l0 2.0898 l-6.9336 0 l0 -13.926 l2.334 0 l0 11.836 z M151.667978125 20.18555 c-2.959 0 -5.2637 -1.6504 -5.2637 -4.9316 l0 -9.1797 l2.3438 0 l0 8.8574 c0 2.2168 1.2793 3.1641 2.9199 3.1641 s2.9395 -0.95703 2.9395 -3.1641 l0 -8.8574 l2.334 0 l0 9.1797 c0 3.2813 -2.3047 4.9316 -5.2734 4.9316 z M164.2275371875 20 l5.4297 -7.2656 l-5.2344 -6.6602 l2.8418 0 l3.7793 4.9805 l3.7695 -4.9805 l2.8418 0 l-5.2246 6.6602 l5.4297 7.2656 l-2.9688 0 l-3.8477 -5.4102 l-3.8477 5.4102 l-2.9688 0 z M190.410165625 20.18555 c-2.959 0 -5.2637 -1.6504 -5.2637 -4.9316 l0 -9.1797 l2.3438 0 l0 8.8574 c0 2.2168 1.2793 3.1641 2.9199 3.1641 s2.9395 -0.95703 2.9395 -3.1641 l0 -8.8574 l2.334 0 l0 9.1797 c0 3.2813 -2.3047 4.9316 -5.2734 4.9316 z M211.9932046875 20 l-3.6133 -6.2109 l-1.5039 0 l0 6.2109 l-2.334 0 l0 -13.926 l4.834 0 c3.0176 0 4.3457 1.8066 4.3457 4.043 c0 1.9434 -1.1523 3.252 -2.998 3.584 l4.0137 6.2988 l-2.7441 0 z M206.8760046875 8.047 l0 4.0137 l2.1582 0 c1.709 0 2.4414 -0.80078 2.4414 -1.9922 c0 -1.1816 -0.73242 -2.0215 -2.4414 -2.0215 l-2.1582 0 z M232.30646875 6.074 l-4.5801 7.2754 l0 6.6504 l-2.3438 0 l0 -6.6211 l-4.5996 -7.3047 l2.6172 0 l3.1445 5.2051 l3.1543 -5.2051 l2.6074 0 z"></path></g></svg>